# xmcd
#
# Track frame offsets:
#	150
#	13329
#	24702
#	37788
#	51543
#	60918
#	68339
#	78783
#	90975
#	102713
#	114568
#	126618
#	137321
#	152316
#	162460
#	177313
#	186494
#	199674
#	211136
#	223324
#
# Disc length: 3135 seconds
#
# Revision: 2
# Processed by: cddbd v1.5.2PL0 Copyright (c) Steve Scherf et al.
# Submitted via: audiograbber 1.83.01
#
DISCID=150c3d14
DTITLE=Country - CD 2-3] - Country - Maxi 3CD
DYEAR=2011
DGENRE=Country
TTITLE0=01 - Ferlin Husky - Country Music Is Here To Stay
TTITLE1=02 - Carl Smith - Loose Talk
TTITLE2=03 - Hank Williams - Jambalaya
TTITLE3=04 - Johnny Paycheck - Someone To Give My Love To
TTITLE4=05 - Webb Pierce - In The Jailhouse Now
TTITLE5=06 - Merle Haggard - I'm A Lonesome Fugitive
TTITLE6=07 - Patsy Cline - Three Cigarettes In An Ashtray
TTITLE7=08 - Porter Wagoner - Green Green Grass Of Home
TTITLE8=09 - Tennesse Renie Ford and Kwy Starr - I'll Never Be Free
TTITLE9=10 - Jim Reeves - Mexican Joe
TTITLE10=11 - Holy Dunn - There Goes My Heart Again
TTITLE11=12 - Janie Fricke - Down To My Last Brocken Heart
TTITLE12=13 - Jeannice C. Riley - Harper Valley P.t.a.
TTITLE13=14 - Mickey Gillet - Lonely Wine
TTITLE14=15 - Juice Newton - Queen Of Hearts
TTITLE15=16 - Mickey Gilley - Suzie Q
TTITLE16=17 - Alabama - Patches
TTITLE17=18 - Eddy Arnold - Kentucky Waltz
TTITLE18=19 - Johnny Cash - Folsom Prison Blues
TTITLE19=20 - Elvis Presley - I'm Left, You're Right, She's Gone
EXTD=Sampler
EXTT0=
EXTT1=
EXTT2=
EXTT3=
EXTT4=
EXTT5=
EXTT6=
EXTT7=
EXTT8=
EXTT9=
EXTT10=
EXTT11=
EXTT12=
EXTT13=
EXTT14=
EXTT15=
EXTT16=
EXTT17=
EXTT18=
EXTT19=
PLAYORDER=
